{"title":"Bodyguards.and.Assassins.2009.BRRIP.H264-ZEKTORM","uid":5368590,"size":735401633,"categoryP":"video","categoryS":"movies","magnet":"?xt=urn:btih:2586b9a1a063e92dc13ec79e4218b335fe42ebc2&amp;dn=Bodyguards.and.Assassins.2009.BRRIP.H264-ZEKTORM&amp;tr=udp%3A%2F%2Ftracker.openbittorrent.com%3A80&amp;tr=udp%3A%2F%2Fopen.demonii.com%3A1337&amp;tr=udp%3A%2F%2Ftracker.coppersurfer.tk%3A6969&amp;tr=udp%3A%2F%2Fexodus.desync.com%3A6969","seeders":1,"leechers":1,"uploader":"blowley","files":4,"time":1266350137,"description":"Title                            : Shi yue wei cheng\nAlso Known As                    : Bodyguards and Assassins\nYear                             : 2009\nGenre                            : Action | Drama | History\niMDB URL                         : http://www.imdb.com/title/tt1403130/\n\nComplete name                    : Bodyguards.and.Assassins.2009.BRRIP.H264-ZEKTORM.mp4\nFormat                           : MPEG-4\nFormat profile                   : Base Media\nCodec ID                         : isom\nFile size                        : 701 MiB\nDuration                         : 2h 18mn\nOverall bit rate                 : 708 Kbps\nSubtitles                        : English (Format: srt)\n\nVideo\nID                               : 1\nFormat                           : AVC\nFormat/Info                      : Advanced Video Codec\nFormat profile                   : &lt;a class=&quot;__cf_email__&quot; href=&quot;/cdn-cgi/l/email-protection&quot; data-cfemail=&quot;a2eacbc5cae2ee918c92&quot;&gt;[email&amp;#160;protected]&lt;/a&gt;&lt;script cf-hash='f9e31' type=&quot;text/javascript&quot;&gt;\n/* &lt;![CDATA[ */!function(){try{var t=&quot;currentScript&quot;in document?document.currentScript:function(){for(var t=document.getElementsByTagName(&quot;script&quot;),e=t.length;e--;)if(t[e].getAttribute(&quot;cf-hash&quot;))return t[e]}();if(t&amp;&amp;t.previousSibling){var e,r,n,i,c=t.previousSibling,a=c.getAttribute(&quot;data-cfemail&quot;);if(a){for(e=&quot;&quot;,r=parseInt(a.substr(0,2),16),n=2;a.length-n;n+=2)i=parseInt(a.substr(n,2),16)^r,e+=String.fromCharCode(i);e=document.createTextNode(e),c.parentNode.replaceChild(e,c)}}}catch(u){}}();/* ]]&gt; */&lt;/script&gt;\nFormat settings, CABAC           : Yes\nCodec ID                         : avc1\nCodec ID/Info                    : Advanced Video Coding\nDuration                         : 2h 18mn\nBit rate mode                    : Variable\nBit rate                         : 621 Kbps\nWidth                            : 752 pixels\nHeight                           : 320 pixels\nDisplay aspect ratio             : 2.35\nFrame rate mode                  : Constant\nFrame rate                       : 24.000 fps\nResolution                       : 24 bits\nColorimetry                      : 4:2:0\nScan type                        : Progressive\nBits/(Pixel*Frame)               : 0.108\nStream size                      : 615 MiB (88%)\nTitle                            : Video\nWriting library                  : x264\n\nAudio\nID                               : 2\nFormat                           : AAC\nFormat/Info                      : Advanced Audio Codec\nFormat version                   : Version 4\nFormat profile                   : LC\nFormat settings, SBR             : Yes\nFormat settings, PS              : No\nCodec ID                         : 40\nDuration                         : 2h 18mn\nBit rate mode                    : Variable\nBit rate                         : 84.5 Kbps\nMaximum bit rate                 : 120 Kbps\nChannel(s)                       : 2 channels\nChannel positions                : L R\nSampling rate                    : 48.0 KHz\nResolution                       : 16 bits\nStream size                      : 83.7 MiB (12%)\nTitle                            : Chinese\nLanguage                         : Chinese\n","torrent":{"xt":"urn:btih:2586b9a1a063e92dc13ec79e4218b335fe42ebc2","amp;dn":"Bodyguards.and.Assassins.2009.BRRIP.H264-ZEKTORM","amp;tr":["udp%3A%2F%2Ftracker.openbittorrent.com%3A80","udp%3A%2F%2Fopen.demonii.com%3A1337","udp%3A%2F%2Ftracker.coppersurfer.tk%3A6969","udp%3A%2F%2Fexodus.desync.com%3A6969"],"infoHash":"2586b9a1a063e92dc13ec79e4218b335fe42ebc2","infoHashBuffer":{"type":"Buffer","data":[37,134,185,161,160,99,233,45,193,62,199,158,66,24,179,53,254,66,235,194]},"announce":[],"urlList":[]}}